# xmcd
#
# Track frame offsets:
#	150
#	21050
#	45100
#
# Disc length: 881 seconds
#
# Revision: 1
# Processed by: cddbd v1.5.1PL0 Copyright (c) Steve Scherf et al.
# Submitted via: CDex 1.50Beta5
#
DISCID=13036f03
DTITLE=Soon - Summer Of Love
DYEAR=1995
DGENRE=Pop
TTITLE0=Summer of Love
TTITLE1=カイロの扉
TTITLE2=Summer of Love(Surfer's Choice)
EXTD=
EXTT0=
EXTT1=
EXTT2=
PLAYORDER=
